Coordinates
version=1
nRows=8
nColumns=40
inDegrees=yes

Units are S.I. units (second, meters, Newtons, ...)
Angles are in degrees.

endheader
time	pelvis_tilt	pelvis_list	pelvis_rotation	pelvis_tx	pelvis_ty	pelvis_tz	hip_flexion_r	hip_adduction_r	hip_rotation_r	knee_angle_r	knee_angle_r_beta	ankle_angle_r	subtalar_angle_r	mtp_angle_r	hip_flexion_l	hip_adduction_l	hip_rotation_l	knee_angle_l	knee_angle_l_beta	ankle_angle_l	subtalar_angle_l	mtp_angle_l	lumbar_extension	lumbar_bending	lumbar_rotation	arm_flex_r	arm_add_r	arm_rot_r	elbow_flex_r	pro_sup_r	wrist_flex_r	wrist_dev_r	arm_flex_l	arm_add_l	arm_rot_l	elbow_flex_l	pro_sup_l	wrist_flex_l	wrist_dev_l
     39.33678571	     -5.09301268	     -3.99735719	     15.06042935	      1.08163660	      0.92116152	      0.49573416	      6.23229570	      1.43904868	    -20.67002226	     17.05713284	     17.05713284	     16.63008531	    -10.47479942	     -3.56978306	     28.10575719	     -4.63263031	      1.85800020	     17.27285204	     17.27285204	     -1.48476245	     -3.18651752	     -1.97323425	     -8.26129627	      4.08507564	      1.88758628	     75.26126521	    -19.08311439	     -1.08532701	     82.49629947	     44.47305195	      0.00000000	      0.00000000	    -26.93402886	    -11.51704017	     25.64992830	     33.71024090	     42.54294577	      0.00000000	      0.00000000
     39.35857143	     -5.23511683	     -3.89146313	     15.08767802	      1.08404144	      0.92055726	      0.49173729	      5.77259509	      1.16696326	    -20.59637427	     16.96684583	     16.96684583	     16.84552397	    -10.49056936	     -3.52517431	     27.79129925	     -4.27411436	      1.97425908	     17.63590902	     17.63590902	     -0.72955960	     -3.63792037	     -2.43675832	     -8.11617506	      3.83749769	      1.96366737	     75.51200687	    -18.84711996	     -1.02590601	     82.73930426	     44.46929573	      0.00000000	      0.00000000	    -26.34495219	    -11.63855467	     25.63655473	     33.74063717	     42.56745368	      0.00000000	      0.00000000
     39.38035714	     -5.34446744	     -3.80736175	     15.08932004	      1.08659329	      0.92018046	      0.48741593	      5.20471078	      0.89886324	    -20.68300624	     16.77584863	     16.77584863	     17.21447935	    -10.08228118	     -2.94740412	     27.44197493	     -3.83144478	      2.65499909	     17.99903835	     17.99903835	     -0.28670688	     -5.09777344	     -3.11966387	     -8.03880875	      3.66338650	      2.23884764	     75.28111968	    -18.94951672	     -1.14200315	     84.05706968	     44.47951465	      0.00000000	      0.00000000	    -25.31749999	    -11.66662266	     25.99517537	     32.93818239	     42.68227052	      0.00000000	      0.00000000
     39.40214286	     -5.47727763	     -3.67721261	     14.98362127	      1.08919722	      0.91990844	      0.48311079	      4.65515715	      0.59291783	    -20.56943952	     16.55139146	     16.55139146	     17.28848053	     -9.95574982	     -2.84645618	     27.24638645	     -3.47922284	      2.81037264	     18.63210664	     18.63210664	      0.49519278	     -5.65763983	     -3.46220637	     -7.90104147	      3.42153293	      2.29630104	     75.07737848	    -18.66474312	     -1.02421054	     84.15001953	     44.47697937	      0.00000000	      0.00000000	    -24.61408663	    -11.82115265	     25.95315731	     33.02191441	     42.71159721	      0.00000000	      0.00000000
     39.42392857	     -5.55909648	     -3.69635837	     14.87633895	      1.09176755	      0.91982295	      0.47871253	      3.97255192	      0.46912349	    -20.65468364	     16.09027561	     16.09027561	     17.25779342	     -9.47083464	     -2.60404299	     27.19637221	     -3.21858162	      3.28358729	     19.51646105	     19.51646105	      1.30550364	     -6.70308610	     -3.42730134	     -7.83517437	      3.35502645	      2.43252125	     74.67877294	    -18.56768374	     -1.05326872	     84.41552252	     44.48069013	      0.00000000	      0.00000000	    -23.77178799	    -11.93224513	     25.91678536	     32.96290228	     42.76505565	      0.00000000	      0.00000000
     39.44571429	     -5.69261396	     -3.53574045	     14.66868861	      1.09431406	      0.91999116	      0.47412907	      3.35784934	      0.05817537	    -20.80995458	     15.76844780	     15.76844780	     17.37760552	     -8.64899517	     -2.23929069	     27.03391913	     -2.76394848	      3.72815052	     20.22334949	     20.22334949	      2.36657822	     -7.68013525	     -2.28897159	     -7.72555423	      3.11933875	      2.89268073	     73.82254235	    -18.72345308	     -1.28736009	     84.96503640	     44.50671906	      0.00000000	      0.00000000	    -22.58341579	    -12.06178362	     25.80410481	     32.51256771	     42.91019032	      0.00000000	      0.00000000
     39.46750000	     -5.80991621	     -3.56993930	     14.38721017	      1.09669932	      0.92013966	      0.46980363	      2.79222309	     -0.10497481	    -20.78846879	     15.38154272	     15.38154272	     17.18139763	     -8.10268405	     -2.03914314	     27.05553465	     -2.60692843	      3.87092841	     21.10556065	     21.10556065	      3.15492011	     -8.30404106	     -2.06875879	     -7.62161746	      3.07906456	      3.14007077	     73.00511570	    -18.62686296	     -1.30825311	     84.72965938	     44.52756371	      0.00000000	      0.00000000	    -21.56189066	    -12.24962615	     25.60015656	     32.58841658	     42.99609474	      0.00000000	      0.00000000
     39.48928571	     -5.94764868	     -3.50173378	     14.02518061	      1.09904970	      0.92036644	      0.46553521	      2.37830803	     -0.42520659	    -20.57219891	     15.28342239	     15.28342239	     17.03095617	     -7.84561064	     -1.97200531	     26.86769225	     -2.39622076	      3.81976524	     21.60199045	     21.60199045	      3.76260414	     -8.73696364	     -2.22975088	     -7.55968419	      2.93021928	      3.24421718	     72.11854411	    -18.27989338	     -1.13295975	     84.48240998	     44.52835416	      0.00000000	      0.00000000	    -20.60743617	    -12.37001385	     25.47524616	     32.81037611	     43.03179629	      0.00000000	      0.00000000
